<?xml version="1.0" encoding="UTF-8" standalone="no"?>
<!-- Created with Inkscape (http://www.inkscape.org/) -->

<svg
   xmlns:dc="http://purl.org/dc/elements/1.1/"
   xmlns:cc="http://creativecommons.org/ns#"
   xmlns:rdf="http://www.w3.org/1999/02/22-rdf-syntax-ns#"
   xmlns:svg="http://www.w3.org/2000/svg"
   xmlns="http://www.w3.org/2000/svg"
   xmlns:sodipodi="http://sodipodi.sourceforge.net/DTD/sodipodi-0.dtd"
   xmlns:inkscape="http://www.inkscape.org/namespaces/inkscape"
   version="1.1"
   id="svg2"
   width="492.79999"
   height="483.20001"
   viewBox="0 0 492.79999 483.20001"
   sodipodi:docname="ITRex-Icon-V2-S_dark-light.svg"
   inkscape:version="0.92.4 (5da689c313, 2019-01-14)">
  <metadata
     id="metadata8">
    <rdf:RDF>
      <cc:Work
         rdf:about="">
        <dc:format>image/svg+xml</dc:format>
        <dc:type
           rdf:resource="http://purl.org/dc/dcmitype/StillImage" />
        <dc:title></dc:title>
      </cc:Work>
    </rdf:RDF>
  </metadata>
  <defs
     id="defs6" />
  <sodipodi:namedview
     pagecolor="#ffffff"
     bordercolor="#666666"
     borderopacity="1"
     objecttolerance="10"
     gridtolerance="10"
     guidetolerance="10"
     inkscape:pageopacity="0"
     inkscape:pageshadow="2"
     inkscape:window-width="1920"
     inkscape:window-height="986"
     id="namedview4"
     showgrid="false"
     inkscape:zoom="0.69071687"
     inkscape:cx="-67.25799"
     inkscape:cy="245.43406"
     inkscape:window-x="-11"
     inkscape:window-y="-11"
     inkscape:window-maximized="1"
     inkscape:current-layer="svg2" />
  <g
     id="g853"
     transform="translate(-2.0474535,-7.1661023)">
    <path
       style="fill:#9ca2cd;stroke-width:1.06666672"
       d="m 281.85882,449.85899 c -14.80902,-14.81757 -26.92549,-27.47556 -26.92549,-28.12885 0,-1.35293 6.53859,-2.08847 32,-3.59974 22.40339,-1.32976 36.26666,-1.3484 36.26666,-0.0487 0,1.9293 -10.92782,53.9264 -11.83597,56.31837 -0.50118,1.32 -1.28664,2.4 -1.74547,2.4 -0.45883,0 -12.95072,-12.12347 -27.75973,-26.94102 z m -39.16656,-47.18043 c -2.79205,-7.30745 -4.79508,-14.01953 -4.45118,-14.91575 0.50065,-1.30467 2.663,-1.62947 10.8483,-1.62947 h 10.22301 l 10.87713,-6.24861 c 5.98243,-3.43673 11.90827,-6.78746 13.16853,-7.44607 2.10677,-1.10098 3.56781,0.22567 18.13334,16.46507 8.71306,9.71439 15.98699,18.75436 16.16428,20.08882 0.30855,2.32243 -0.0796,2.45503 -9.06666,3.09749 -5.16396,0.36916 -19.94902,1.17374 -32.85568,1.78797 -12.90667,0.61424 -24.4787,1.33505 -25.71564,1.60181 -2.0034,0.43206 -2.80325,-0.9657 -7.32543,-12.80126 z m 63.88251,-14.50576 c -9.94133,-11.92421 -16.83669,-21.09509 -16.64151,-22.13334 0.1833,-0.97503 4.8642,-10.08271 10.40198,-20.23927 9.22742,-16.92354 10.01258,-18.81742 9.39706,-22.66667 l -0.67163,-4.20018 h 37.06068 37.06067 l -0.47025,2.4 c -0.25865,1.32 -12.6746,21.47305 -27.59102,44.78453 -21.42464,33.4826 -27.58812,42.38779 -29.34598,42.40001 -1.59378,0.0111 -7.04214,-5.76221 -19.2,-20.34508 z m 29.42522,16.59523 c 0,-2.02751 48.4192,-77.08082 52.17107,-80.86899 l 3.00524,-3.03431 17.1715,19.85221 c 9.44432,10.91872 16.94171,20.45102 16.66086,21.18291 -0.53033,1.38201 -80.90607,42.00248 -86.07533,43.50094 -2.20122,0.63808 -2.93334,0.48015 -2.93334,-0.63276 z M 82.915693,382.91811 c -14.897708,-4.53718 -15.997788,-5.00515 -15.472241,-6.58179 0.195835,-0.58751 9.221173,-3.8864 20.056305,-7.33088 22.068313,-7.01549 20.670243,-7.1194 24.072463,1.78918 0.96191,2.51874 1.45818,5.68034 1.10281,7.02579 -0.68913,2.60906 -11.20942,9.4313 -14.360126,9.31232 -0.979865,-0.037 -7.90951,-1.93359 -15.399211,-4.21462 z m 82.950967,-5.36582 c -25.81333,-0.37943 -47.07782,-0.76391 -47.25443,-0.8544 -0.1766,-0.0905 -1.0166,-1.82914 -1.86666,-3.86362 -1.73174,-4.14464 -2.02351,-8.67964 -0.61446,-9.55049 1.75986,-1.08766 98.70992,12.34838 100.36413,13.90918 1.35254,1.27618 1.20956,1.44527 -1.06667,1.26145 -1.44572,-0.11674 -23.74857,-0.5227 -49.56191,-0.90212 z m 95.76095,-10.68674 c 0.79151,-13.8054 2.85302,-30.12104 4.05072,-32.05895 0.63813,-1.03253 1.23068,-1.12425 2.03929,-0.31564 1.61283,1.61283 12.63782,30.60083 12.13292,31.90109 -0.41002,1.05594 -1.51907,1.76167 -13.08919,8.32932 l -5.77198,3.2764 z M 241.6,375.93545 c -0.58667,-0.2362 -28.16193,-4.03072 -61.27836,-8.43224 -38.59973,-5.13032 -60.71316,-8.50425 -61.6088,-9.39989 -1.15171,-1.15171 4.52171,-6.41415 32.29894,-29.95926 l 33.69608,-28.56216 24.13376,1.21023 24.13377,1.21022 13.9123,7.77467 13.9123,7.77467 0.32788,5.64844 c 0.32271,5.55929 -3.1129,36.78568 -5.25172,47.73321 l -1.09408,5.6 -6.0577,-0.0843 c -3.33173,-0.0463 -6.53771,-0.27747 -7.12437,-0.51367 z M 57.146866,371.32978 c -1.223836,-1.98022 -10.213534,-28.72025 -10.213534,-30.38036 0,-3.16407 4.709334,-1.93779 28.72819,7.4807 17.537386,6.87692 23.538476,9.68237 23.538476,11.00401 0,1.35706 -4.10865,3.07319 -17.484738,7.30322 -16.911871,5.34816 -23.356772,6.55287 -24.568394,4.59243 z M 282.8466,357.66483 c -2.39153,-4.47963 -12.97154,-35.74878 -12.40556,-36.66457 0.34293,-0.55488 8.18933,-1.00025 17.62191,-1.00025 15.50238,0 16.9992,0.16482 16.95259,1.86666 -0.065,2.37325 -18.56937,36.8735 -20.04024,37.36379 -0.60365,0.20122 -1.56156,-0.50332 -2.1287,-1.56563 z M 87.999998,349.40004 c -8.8,-3.63919 -18.639999,-7.52118 -21.866666,-8.62665 -5.925633,-2.03014 -9.6,-4.33582 -9.6,-6.02401 0,-0.50598 11.828,-0.79159 26.284443,-0.63467 30.943865,0.33587 29.183005,-0.44197 27.377105,12.09341 -1.09663,7.61206 -2.43071,10.19197 -5.12822,9.91725 -0.58666,-0.0597 -8.266662,-3.08614 -17.066662,-6.72533 z m 27.205952,-4.0667 c 0.0131,-12.3273 -0.55825,-11.75108 24.34974,-24.55725 21.86675,-11.24256 24.71097,-12.44437 24.71097,-10.44156 0,1.5181 -45.74185,40.59881 -47.51871,40.59881 -1.15702,0 -1.54645,-1.41427 -1.542,-5.6 z M 63.470397,327.7656 c -4.691281,-0.21897 -8.930495,-0.79902 -9.420476,-1.28901 -0.489981,-0.48997 8.437923,-5.73536 19.839786,-11.65639 l 20.730661,-10.76553 13.984802,0.66894 13.9848,0.66893 9.90501,-6.21096 c 5.44776,-3.41602 18.54502,-11.83907 29.10502,-18.71786 16.98259,-11.0625 20.14655,-12.72521 27.39594,-14.39702 l 8.19595,-1.89009 26.47072,4.98286 c 14.5589,2.74058 29.23072,4.98085 32.60405,4.97837 4.63532,-0.003 6.13333,0.37146 6.13333,1.5348 0,0.84661 -5.64,5.87022 -12.53333,11.16359 l -12.53333,9.62431 -29.2193,0.0364 -29.21929,0.0364 -32.64737,15.73333 -32.64737,15.73334 -20.800002,0.0819 c -11.44,0.045 -24.63832,-0.0973 -29.329601,-0.31626 z M 253.66407,309.03821 c -6.27144,-3.65101 -11.62823,-7.48486 -11.90401,-8.51967 -0.3478,-1.30504 0.85805,-2.82633 3.93592,-4.96552 2.44055,-1.69622 11.11991,-8.37576 19.28749,-14.84339 l 14.85015,-11.75935 12.49896,8.47139 c 11.33934,7.68543 15.5398,9.70225 45.27408,21.73797 18.02631,7.29663 33.00728,13.49876 33.29104,13.78251 2.4554,2.4554 -3.99749,2.7895 -53.36066,2.76273 l -52.47038,-0.0285 z m 92.22554,-10.69029 c -17.14737,-7.15802 -31.42813,-13.65583 -31.73502,-14.43958 -0.30691,-0.78376 -0.19723,-2.05638 0.24371,-2.82805 2.40045,-4.20096 38.41011,-43.213 39.88757,-43.21329 1.95568,-3.7e-4 1.71181,-0.4993 7.29892,14.93301 2.23017,6.16 7.94592,21.40236 12.70169,33.87192 4.75576,12.46957 8.64685,23.14957 8.64685,23.73334 0,2.66659 -8.04387,0.0484 -37.04372,-12.05735 z m -52.33404,-25.99846 c -6.69738,-4.85294 -9.82224,-7.79099 -9.82224,-9.23504 0,-4.14931 4.37026,-25.84118 5.896,-29.26491 l 1.55252,-3.48382 29.07573,0.28382 c 26.23816,0.25613 29.07575,0.45623 29.07575,2.05039 0,0.97161 -9.01186,11.89161 -20.02637,24.26667 -16.94906,19.04267 -20.47988,22.5001 -22.97775,22.5001 -1.94782,0 -6.29132,-2.4201 -12.77364,-7.11721 z M 110.38752,252.64565 C 85.350698,233.91731 83.11461,231.98368 83.410595,229.31784 c 0.482739,-4.34788 54.660325,-65.47511 58.392395,-65.88269 1.58359,-0.17295 14.32575,4.43322 30.33819,10.96695 22.24174,9.07556 28.56521,12.11269 32.53333,15.62563 2.70902,2.39826 6.00549,4.86018 7.32549,5.47092 1.32,0.61075 2.4,1.77213 2.4,2.58084 0,3.1611 -20.31553,54.1017 -22.50616,56.43351 -1.55221,1.65226 -8.22133,4.42011 -20.04337,8.31851 -16.97677,5.59821 -32.16357,10.23516 -33.52188,10.23516 -0.35277,0 -12.92626,-9.18946 -27.94107,-20.42102 z M 242.29751,240.6239 c -11.34736,-25.85588 -13.02089,-30.49056 -11.00976,-30.49056 0.87222,0 35.86256,42.08622 40.5099,48.72511 1.51459,2.16366 1.96762,3.64312 1.25117,4.08592 -1.64445,1.01632 -15.1532,4.78897 -17.14791,4.78897 -1.20656,0 -5.18834,-7.93506 -13.6034,-27.10944 z m 144.15718,24.87936 c -3.23868,-1.25268 -5.81189,-2.98482 -6.18621,-4.16416 -0.37864,-1.19303 1.17038,-6.38368 3.78562,-12.68533 3.89169,-9.37735 4.76631,-10.70557 7.23879,-10.99324 2.63008,-0.306 3.54628,-2.19303 14.14199,-29.12719 6.23135,-15.84 11.02865,-29.14503 10.66068,-29.56673 -0.36796,-0.4217 -7.47537,-1.21815 -15.79421,-1.76988 -8.31886,-0.55173 -15.62983,-1.31503 -16.24661,-1.69623 -1.70012,-1.05073 -1.37549,-3.00953 1.53483,-9.26124 3.9905,-8.57205 3.64925,-10.05807 -4.3131,-18.78221 -14.93739,-16.36651 -38.8821,-34.08273 -63.40981,-46.91571 -17.08278,-8.937758 -32.7348,-14.822636 -52.93271,-19.90174 -13.00111,-3.269346 -16.73141,-3.761443 -30.68089,-4.047398 l -15.88028,-0.325534 -3.68924,8.8 c -2.0291,4.840001 -4.08575,8.800001 -4.57036,8.800001 -1.7937,0 -57.57985,-60.208177 -57.57985,-62.144053 0,-1.725093 0.59687,-1.903608 4.53333,-1.355843 2.49334,0.346951 42.21334,3.498156 88.26667,7.002676 46.05333,3.504521 85.98056,6.667556 88.72719,7.028966 l 4.99386,0.657108 62.08076,65.608817 c 34.1444,36.08485 62.13717,66.38735 62.20613,67.33891 0.11242,1.55119 -1.92593,1.68935 -19.71167,1.33619 -16.07129,-0.31913 -19.94721,-0.11664 -20.41733,1.06667 -6.46651,16.27624 -23.21228,59.59539 -23.21228,60.04716 0,0.33737 0.66865,0.6134 1.48588,0.6134 0.81724,0 1.78478,0.77892 2.1501,1.73094 0.9064,2.36204 -8.07276,24.32195 -10.06587,24.61761 -0.86356,0.1281 -4.0655,-0.73227 -7.11541,-1.91196 z m -301.121358,-7.4145 c -14.96,-4.58501 -29.988853,-9.12359 -33.397453,-10.08575 -9.601648,-2.71027 -8.100235,-4.29356 9.718497,-10.24852 l 15.254378,-5.09795 20.745622,15.56011 C 109.06447,256.77469 118.4,264.42698 118.4,265.22171 c 0,2.53814 -5.10456,1.437 -33.066668,-7.13295 z m 135.456188,3.94055 c -10.85909,-2.43612 -20.33909,-4.81764 -21.06667,-5.29226 -0.72757,-0.47462 -1.32285,-1.76347 -1.32285,-2.86411 0,-1.10063 4.26817,-12.95231 9.48481,-26.33704 7.87671,-20.20986 9.86603,-24.39369 11.73333,-24.67675 1.23669,-0.18747 2.24852,0.21364 2.24852,0.89136 0,0.67771 6,14.60889 13.33334,30.95817 7.33333,16.34928 13.33333,30.22817 13.33333,30.84198 0,1.96926 -7.52862,1.01371 -27.74381,-3.52135 z m 50.49391,-11.04636 c -18.13795,-21.23869 -38.7501,-47.43261 -38.7501,-49.24363 0,-1.301 0.93331,-2.38564 2.4,-2.78912 1.32,-0.36311 4.68,-1.67751 7.46667,-2.92087 6.2001,-2.76638 6.56006,-5.2077 1.79005,-12.14066 -1.80212,-2.61931 -3.12212,-5.20547 -2.93333,-5.747 0.68524,-1.96551 25.86557,-22.40833 27.60132,-22.40833 1.31755,0 2.10592,1.60309 3.01628,6.13333 0.67788,3.37333 3.80964,19.34207 6.9595,35.48607 l 5.727,29.35275 -2.28042,14.90228 c -1.78607,11.67184 -2.65285,14.97337 -3.99855,15.2302 -1.01975,0.19463 -3.86449,-2.18534 -6.99842,-5.85502 z M 34.133333,238.95093 c 0,-1.16365 4.147227,-13.1859 9.21606,-26.71611 6.951915,-18.55669 9.617914,-24.52271 10.851778,-24.28426 0.948703,0.18334 5.413835,8.31647 10.631061,19.36423 7.52624,15.9372 8.759003,19.27519 7.548222,20.43846 -1.557532,1.49643 -34.131541,13.31342 -36.698978,13.31342 -0.851479,0 -1.548143,-0.95208 -1.548143,-2.11574 z M 293.42362,226.30204 c -1.4008,-2.61741 13.65556,-56.48603 16.18332,-57.90062 1.37585,-0.76997 5.42731,4.28786 21.51076,26.854 10.89859,15.29145 19.81563,28.68322 19.81563,29.75949 0,1.07627 -0.75926,2.24821 -1.68725,2.60431 -0.92798,0.3561 -13.63109,0.64745 -28.22913,0.64745 -24.69048,0 -26.61524,-0.13704 -27.59333,-1.96463 z M 75.08874,219.02141 c -0.88486,-2.24843 -5.136987,-12.00807 -9.44917,-21.68807 -4.312185,-9.68 -7.441291,-18.01987 -6.953571,-18.53305 0.48772,-0.51318 10.162891,-2.78772 21.500381,-5.05455 11.33749,-2.26681 22.29362,-4.82356 24.34695,-5.68164 7.81409,-3.2655 26.66667,-6.02874 26.66667,-3.90854 0,0.52554 -5.21134,6.88554 -11.58076,14.13333 -28.627612,32.57546 -39.283827,44.12001 -41.036598,44.45757 -1.346169,0.25924 -2.344997,-0.80567 -3.493902,-3.72505 z m 3.844592,-21.15474 c 1.466666,-0.83842 4.647893,-1.54142 7.069392,-1.5622 5.854097,-0.0502 7.822271,-2.32084 4.116478,-4.74897 -2.046608,-1.34099 -4.620475,-1.70371 -10.418651,-1.46823 -7.577633,0.30774 -7.706079,0.361 -8.046765,3.33617 -0.689827,6.0242 1.826819,7.56029 7.279546,4.44323 z m 271.218188,14.24216 c -2.21,-3.05072 -12.42364,-17.57022 -22.69697,-32.26556 -17.79993,-25.46169 -18.91065,-26.8049 -23.60729,-28.54873 -2.71069,-1.00645 -8.22107,-3.84518 -12.24529,-6.30828 l -7.31677,-4.47834 -17.83773,0.74195 -17.83774,0.74195 -8.4285,-3.65253 -8.42851,-3.65255 -18.36903,3.96905 c -15.77359,3.40823 -18.45621,3.74186 -18.98602,2.36119 -0.60397,-1.57389 26.16522,-56.634234 29.19909,-60.058312 1.89425,-2.137878 6.97341,-1.794338 28.13657,1.903078 30.34705,5.301933 66.00915,20.542484 93.86666,40.114854 14.24845,10.01079 37.33334,31.92652 37.33334,35.44254 0,1.24628 -5.52,14.08407 -12.26667,28.52844 -6.74667,14.44436 -12.26667,26.75333 -12.26667,27.35326 0,0.59992 -0.95181,1.60017 -2.11513,2.22276 -1.8457,0.98779 -2.62701,0.4254 -6.13334,-4.41477 z m -68.90535,-28.37549 c -7.44721,-38.51294 -7.15396,-35.9186 -4.10875,-36.35013 3.08913,-0.43776 26.58656,10.42277 27.35688,12.64437 0.31039,0.89515 -1.8558,10.25515 -4.81375,20.8 -8.70818,31.04385 -9.54202,33.57242 -11.07098,33.57242 -1.02936,0 -3.10496,-8.64429 -7.3634,-30.66666 z M 174.2415,170.85822 c -23.55227,-9.93667 -28.10817,-12.21808 -28.10817,-14.07539 0,-0.45245 3.12505,-2.07367 6.94455,-3.60273 6.4269,-2.57286 8.16371,-2.7801 23.29968,-2.7801 13.17473,0 17.47801,-0.38632 22.12955,-1.98668 3.17593,-1.09269 11.81886,-3.08224 19.20652,-4.42124 l 13.43209,-2.43455 7.3831,2.82124 c 6.0541,2.31339 9.15507,2.82123 17.22713,2.82123 13.69164,0 13.37826,1.07732 -4.44465,15.28018 -15.26098,12.1613 -16.24645,12.56137 -24.10844,9.7875 -3.93713,-1.3891 -5.27785,-1.40422 -10.21398,-0.11522 -3.31514,0.8657 -7.63835,3.08688 -10.37861,5.33232 -2.58316,2.11671 -5.36722,3.83559 -6.1868,3.81973 -0.81958,-0.0159 -12.60146,-4.71669 -26.18197,-10.44629 z"
       id="path867"
       inkscape:connector-curvature="0" />
    <path
       style="fill:#505baa;stroke-width:1.06666672"
       d="m 282.6894,449.62276 c -17.16862,-17.17853 -26.78039,-27.5416 -26.12549,-28.16759 0.95892,-0.91659 18.5653,-2.26472 51.96942,-3.97932 13.44046,-0.68989 13.6,-0.67105 13.6,1.6061 0,4.17574 -11.17725,57.71806 -12.04896,57.71806 -0.12837,0 -12.45611,-12.22976 -27.39497,-27.17725 z M 242.72866,402.2927 c -2.76328,-7.10334 -4.6216,-13.41133 -4.24222,-14.4 0.56391,-1.46953 2.40178,-1.75936 11.1568,-1.75936 9.67158,0 10.87873,-0.23892 15.61921,-3.0914 2.82565,-1.70027 8.49754,-5.04527 12.60421,-7.43333 l 7.46667,-4.34194 2.66666,3.00139 c 1.46667,1.65076 8.78667,9.80379 16.26667,18.11783 7.76943,8.63573 13.6,16.02339 13.6,17.23194 0,1.72936 -0.73013,2.11974 -4,2.13868 -2.2,0.0127 -16.24,0.72231 -31.2,1.57683 -14.96,0.85452 -28.95965,1.56409 -31.11032,1.57683 l -3.91034,0.0232 z m 64.09523,-14.05911 c -14.37177,-17.23897 -16.81084,-20.67582 -16.25238,-22.90091 0.36139,-1.43988 5.01821,-10.57994 10.34851,-20.31123 8.53275,-15.57792 9.60923,-18.13131 9.00403,-21.35735 l -0.68739,-3.66409 H 346.085 c 28.79811,0 36.8358,0.29129 36.79103,1.33333 -0.0315,0.73333 -12.4109,20.53333 -27.50973,44 -19.37085,30.10622 -28.06779,42.74269 -29.54271,42.92492 -1.5466,0.19108 -6.48828,-5.01718 -18.9997,-20.02467 z m 29.48251,15.70647 c 0.74176,-1.933 47.23931,-74.05706 50.54302,-78.39914 1.47543,-1.93915 3.32221,-3.37915 4.10396,-3.2 1.9155,0.439 33.57994,37.13331 33.57994,38.91408 0,1.49246 -84.09508,44.07834 -87.04224,44.07834 -0.97669,0 -1.48839,-0.60181 -1.18468,-1.39328 z M 96.533331,386.45844 c -1.173333,-0.27175 -8.034694,-2.20791 -15.247467,-4.30257 -15.630909,-4.53937 -16.373562,-5.93631 -5.012968,-9.42944 4.103239,-1.26165 12.898571,-4.00847 19.54518,-6.10403 l 12.084744,-3.81013 2.02517,4.46054 c 1.11383,2.45329 2.0357,6.22354 2.04858,8.37831 0.0217,3.61981 -0.44052,4.20799 -6.07653,7.73334 -3.35498,2.09856 -6.35498,3.75987 -6.666668,3.69181 -0.31169,-0.0681 -1.526707,-0.34608 -2.700041,-0.61783 z m 35.250239,-9.8762 -13.81644,-0.58223 -1.53812,-4.9613 c -1.96663,-6.3435 -1.20994,-8.50682 2.73039,-7.80601 1.63566,0.29092 23.13393,3.17657 47.77393,6.41257 24.64,3.23599 45.76,6.31714 46.93333,6.84698 2.29846,1.03793 -58.01879,1.10406 -82.08309,0.09 z m 110.88309,-0.65609 c -0.58666,-0.24133 -28.07,-4.02833 -61.07409,-8.41557 -52.24274,-6.94463 -65.64149,-9.18156 -64.08393,-10.69885 0.19691,-0.19182 15.47802,-13.14083 33.95802,-28.77557 l 33.6,-28.42682 7.46667,0.57038 c 4.10667,0.3137 14.85836,0.8708 23.89266,1.23798 l 16.42598,0.66762 14.24069,8.00657 14.24067,8.00656 v 5.38961 c 0,7.28427 -5.08769,47.64133 -6.3847,50.64528 -0.87601,2.02891 -1.82318,2.38698 -6.12577,2.31579 -2.79924,-0.0463 -5.56953,-0.28166 -6.1562,-0.52298 z m 18.66667,-3.15648 c 0,-7.30047 3.28516,-34.93571 4.40083,-37.02034 0.62718,-1.17192 1.53601,-1.70469 2.04215,-1.19717 1.15542,1.15858 11.69035,28.92943 11.69035,30.8166 0,1.3589 -15.02262,11.16458 -17.1045,11.16458 -0.56586,0 -1.02883,-1.69365 -1.02883,-3.76367 z M 57.086463,370.40001 c -2.908576,-7.31935 -10.153131,-28.53106 -10.153131,-29.72789 0,-0.80966 1.058299,-1.47211 2.351775,-1.47211 2.897312,0 48.564267,17.8776 49.488997,19.37384 1.173477,1.89872 -0.836955,2.80694 -18.3789,8.30269 -18.70907,5.86141 -22.171685,6.38483 -23.308741,3.52347 z M 281.57455,353.33334 c -6.9924,-18.54929 -10.79646,-30.32355 -10.25386,-31.73758 0.50722,-1.32178 3.45667,-1.59575 17.17917,-1.59575 11.17842,0 16.5668,0.37568 16.5668,1.15504 0,1.6269 -19.57582,38.27149 -20.45669,38.29352 -0.39785,0.01 -1.76379,-2.7419 -3.03542,-6.11523 z M 81.825924,346.7398 c -12.782408,-5.13036 -23.771837,-9.85904 -24.420953,-10.50816 -2.060862,-2.06086 2.873622,-2.32595 28.461694,-1.52903 l 24.533335,0.76406 -0.23819,7.26201 c -0.23381,7.12885 -1.91924,12.60672 -4.02848,13.0931 -0.58667,0.13528 -11.524999,-3.95161 -24.307406,-9.08198 z M 115.2,346.07235 c 0,-2.67355 0.5121,-6.89476 1.13802,-9.38049 l 1.13802,-4.5195 22.81539,-11.39304 c 12.54846,-6.26616 23.05361,-11.00758 23.34477,-10.53648 0.29116,0.47112 -1.48787,2.56878 -3.95341,4.66149 -2.46553,2.0927 -12.88279,11.04901 -23.14946,19.90291 -10.26667,8.85389 -19.26667,16.10431 -20,16.11204 -0.87367,0.01 -1.33333,-1.66175 -1.33333,-4.84693 z M 65.685174,327.53207 c -5.819819,-0.3293 -10.741541,-1.08389 -10.937158,-1.67687 -0.195617,-0.59297 8.5294,-5.51297 19.388928,-10.93334 l 19.744594,-9.85519 h 14.896522 14.89651 l 18.96272,-12.0945 c 10.42949,-6.65198 23.28271,-14.9371 28.56271,-18.41139 7.42764,-4.88744 11.44037,-6.75014 17.73296,-8.2316 9.08007,-2.13772 7.43734,-2.3176 43.60037,4.77435 9.09333,1.7833 19.53333,3.21219 23.2,3.1753 4.80192,-0.0483 6.66666,0.32181 6.66666,1.32314 0,0.7646 -5.73701,5.78694 -12.74892,11.16078 l -12.74892,9.77059 h -29.24134 -29.24135 l -31.92107,15.29179 -31.92109,15.29178 -19.155317,0.50695 c -10.535425,0.27881 -23.916988,0.23751 -29.736809,-0.0918 z m 236.672536,-12.83978 -39.50894,-0.55895 -10.35772,-6.18235 c -5.69675,-3.40027 -10.35772,-6.82324 -10.35772,-7.60657 0,-1.17154 30.20031,-25.87012 36.26056,-29.65481 1.42079,-0.8873 4.31611,0.58738 14.49083,7.38064 11.41486,7.62124 15.93344,9.78074 44.18194,21.11526 17.30667,6.94418 32.06139,13.08264 32.78826,13.641 2.91952,2.24271 -0.4903,2.89582 -13.91788,2.66578 -7.73871,-0.13257 -31.84941,-0.49257 -53.57933,-0.8 z m 43.77562,-16.40569 c -25.95012,-10.90929 -30.98678,-13.37553 -31.26507,-15.30914 -0.3112,-2.16228 6.97595,-10.89417 33.13797,-39.70791 6.41311,-7.06312 7.46231,-6.71716 11.22079,3.69997 1.47451,4.08676 7.40399,19.84868 13.17664,35.02648 5.77264,15.17779 10.23503,28.01779 9.91641,28.53333 -1.25113,2.02436 -6.36426,0.29448 -36.18674,-12.24273 z m -50.66667,-24.80946 c -4.4,-3.24588 -8.93042,-6.57463 -10.0676,-7.39721 -2.03703,-1.47347 -2.02586,-1.71843 0.75465,-16.55716 1.55225,-8.28386 3.38144,-15.73534 4.06488,-16.55884 1.01149,-1.21877 6.69538,-1.49726 30.55946,-1.49726 25.50576,0 29.23774,0.20617 28.70827,1.58595 -0.33472,0.87227 -9.58599,11.67227 -20.55836,24 -16.39191,18.41671 -20.44124,22.40621 -22.70553,22.3701 -1.61745,-0.0258 -6.06029,-2.48172 -10.75577,-5.94558 z m -185.6,-21.34283 C 90.807181,237.75356 83.646587,231.75806 83.412868,229.98483 c -0.24722,-1.87566 6.165293,-9.78561 28.056422,-34.6081 C 129.80903,174.58118 140.55802,163.2 141.85874,163.2 c 1.10692,0 14.58456,5.12696 29.95032,11.39323 23.89519,9.74464 28.80496,12.13563 33.93101,16.52385 3.29629,2.82185 6.64529,5.1349 7.44223,5.14011 1.04686,0.006 1.24486,0.82271 0.71347,2.93991 -1.73655,6.91899 -19.2579,51.22575 -21.43011,54.19099 -1.31136,1.79011 -3.99261,3.79195 -5.95831,4.44852 -22.59975,7.54859 -44.73445,14.13821 -47.30735,14.08366 -2.44402,-0.0518 -9.37385,-4.72613 -29.33334,-19.78596 z m 143.62107,12.6657 c -4.21048,-8.23171 -23.21744,-52.75918 -22.72916,-53.24746 1.04562,-1.04563 2.64621,0.68226 18.71432,20.20263 22.56473,27.41281 24.11142,29.48717 22.89406,30.70454 -0.92751,0.92751 -14.61028,5.27362 -16.60284,5.27362 -0.42679,0 -1.45118,-1.32 -2.27638,-2.93333 z M 241.6,265.92002 c -6.55067,-0.87414 -39.53495,-8.06637 -41.33334,-9.01276 -1.02666,-0.54027 -1.86555,-1.80542 -1.86419,-2.81145 0.003,-2.20014 17.84793,-48.1797 19.45629,-50.13133 0.62045,-0.75287 1.55169,-1.22765 2.06943,-1.05508 1.39411,0.46471 28.69163,61.6877 28.00214,62.80332 -0.32427,0.52467 -1.16125,0.88204 -1.85996,0.79413 -0.69871,-0.0879 -2.71037,-0.35198 -4.47037,-0.58683 z m 145.06666,-0.52422 c -7.0612,-2.53521 -7.31201,-4.17298 -2.50074,-16.32913 4.02209,-10.16221 4.73574,-11.2 7.70187,-11.2 1.98607,0 3.73134,-3.71796 13.8156,-29.43156 6.3483,-16.18735 11.29157,-29.68237 10.98502,-29.98891 -0.30654,-0.30655 -7.60102,-0.94501 -16.20992,-1.41882 -8.60892,-0.4738 -16.14299,-1.35187 -16.74239,-1.95127 -0.74196,-0.74196 0.0324,-3.80797 2.42627,-9.60598 l 3.51609,-8.51619 -6.29591,-7.57 C 370.708,134.16846 339.86014,111.30658 315.48894,99.081627 299.01842,90.819765 283.34288,85.009748 265.14856,80.423346 252.64802,77.272222 247.75147,76.582024 234.21523,76.063099 l -16.0819,-0.616514 -3.06706,8.123753 c -1.68689,4.468064 -3.64755,8.605515 -4.35704,9.194335 -0.94198,0.781779 -8.89087,-6.998608 -29.46627,-28.841659 C 165.746,47.471281 152.90951,33.049629 152.71745,31.8749 c -0.30668,-1.875649 0.0832,-2.059988 3.2,-1.513022 1.95206,0.34257 41.08857,3.48467 86.97001,6.982445 98.46441,7.506445 94.79087,7.130784 97.96166,10.017683 9.31509,8.481063 122.0842,129.310834 122.0842,130.810684 0,1.73626 -1.53418,1.86939 -19.83617,1.72122 L 423.26099,179.73334 415.90777,198.4 c -4.04428,10.26667 -9.3649,23.87907 -11.8236,30.24978 l -4.47035,11.58309 2.4495,1.84767 2.4495,1.84766 -4.67649,11.10257 c -5.09327,12.09204 -6.1165,12.89736 -13.16967,10.36503 z M 84.799998,257.56663 c -14.079999,-4.28725 -28.388852,-8.58656 -31.797452,-9.554 -9.434811,-2.67782 -8.040851,-4.32142 8.299511,-9.78587 7.609466,-2.54472 14.448017,-4.62676 15.196781,-4.62676 1.410964,0 38.585462,27.69009 40.869902,30.44268 2.67795,3.22671 -7.06742,1.28892 -32.568742,-6.47605 z M 254.54662,230.19277 c -12.10731,-14.78064 -22.01329,-27.74064 -22.01329,-28.8 0,-1.05936 0.70631,-1.9261 1.56959,-1.9261 0.86326,0 4.22326,-1.17359 7.46666,-2.60797 5.06516,-2.24005 5.89708,-3.01689 5.89708,-5.50661 0,-1.59426 -1.50175,-5.23892 -3.33721,-8.09925 -1.83548,-2.86035 -3.15548,-5.33277 -2.93334,-5.49429 0.22214,-0.16152 6.2848,-5.23427 13.47259,-11.27278 7.1878,-6.03851 13.68825,-10.74136 14.44548,-10.45079 1.50802,0.57868 14.7301,65.76648 14.6508,72.23169 -0.0252,2.05333 -0.99943,9.25333 -2.16499,16 -1.16555,6.74667 -2.12236,12.38667 -2.12626,12.53334 -0.004,0.14666 -0.66108,0.26666 -1.46044,0.26666 -0.79936,0 -11.35936,-12.09326 -23.46667,-26.8739 z M 34.133333,239.0375 c 0,-2.60496 17.496465,-48.96063 19.075777,-50.53994 0.747021,-0.74702 1.53877,-0.8132 2.124249,-0.17756 0.513348,0.55734 4.845971,9.38358 9.62805,19.61386 6.949233,14.86648 8.421392,18.85155 7.333306,19.85099 -1.438119,1.32095 -34.631232,13.28182 -36.858933,13.28182 -0.716347,0 -1.302449,-0.91313 -1.302449,-2.02917 z M 294.13598,226.4 c -1.51882,-1.70657 -0.99107,-4.23547 6.15359,-29.48693 7.13815,-25.22839 9.32677,-30.75401 11.32887,-28.60198 2.94305,3.16342 39.31489,55.33618 39.31489,56.39433 0,3.01438 -4.55024,3.56125 -29.63122,3.56125 -22.9463,0 -25.67146,-0.18725 -27.16613,-1.86667 z M 74.780455,217.33334 c -1.069051,-2.49334 -5.131992,-11.78293 -9.028759,-20.64352 -3.896767,-8.86061 -7.085031,-16.59123 -7.085031,-17.17917 0,-0.58794 9,-2.86458 20,-5.05919 11,-2.19461 21.919995,-4.70216 24.266665,-5.57232 3.92191,-1.45426 22.65781,-5.52114 25.94488,-5.63167 0.77635,-0.0261 1.25635,0.6697 1.06666,1.54624 -0.65637,3.03317 -49.168404,57.07296 -51.234932,57.07296 -1.32017,0 -2.63725,-1.51948 -3.929483,-4.53333 z M 78.933332,198.4 c 2.299923,-1.17333 6.069446,-2.13333 8.376717,-2.13333 5.295298,0 6.437998,-2.29942 2.630897,-5.29409 C 87.789808,189.28049 85.606628,188.8 80.069482,188.8 c -4.107376,0 -7.649987,0.54051 -8.389483,1.28 -1.968506,1.96851 -1.585812,8.03588 0.586666,9.30123 2.398221,1.39683 1.845944,1.47812 6.666667,-0.98123 z m 263.841348,2.93334 c -5.91234,-8.36 -15.96007,-22.70145 -22.32829,-31.86989 -9.70639,-13.97444 -12.18773,-16.87871 -15.34582,-17.96137 -2.07199,-0.71031 -7.58557,-3.4724 -12.25241,-6.13797 l -8.48517,-4.8465 -18.17066,0.52457 -18.17067,0.52457 -8.1699,-3.49686 -8.1699,-3.49686 -16.9076,3.64567 c -18.2012,3.9246 -20.64093,4.22883 -20.64093,2.57394 0,-0.59071 6.75571,-14.57877 15.01268,-31.0846 l 15.01268,-30.010565 9.02851,0.693986 c 13.89078,1.06773 34.71161,5.497604 50.1037,10.660148 17.47395,5.860806 45.98628,20.526071 61.24243,31.499921 13.61416,9.79276 38.4,32.82686 38.4,35.68608 0,3.70319 -26.00088,58.27237 -27.77114,58.28451 -0.9008,0.006 -6.47518,-6.82878 -12.38751,-15.18878 z m -55.28814,11.73333 c -1.05544,-3.15176 -12.29174,-61.30237 -12.28927,-63.6 0.002,-2.19711 0.39204,-2.45396 2.93606,-1.93529 1.61333,0.32893 8.09333,3.01965 14.4,5.97938 10.16256,4.7693 11.46666,5.68993 11.46666,8.09484 0,1.49244 -2.59628,11.94172 -5.76953,23.22063 -3.17324,11.2789 -6.31175,22.54711 -6.97444,25.04044 -1.17699,4.42826 -2.87535,5.87004 -3.76948,3.2 z m -90.71529,-33.39805 c -12.33073,-4.17564 -49.07197,-20.55884 -49.35345,-22.00709 -0.2069,-1.0645 1.51379,-2.4104 4.99774,-3.90915 4.66705,-2.00772 7.31219,-2.28571 21.74854,-2.28571 13.77781,0 17.45399,-0.35209 22.7356,-2.17751 3.46517,-1.19764 12.46303,-3.38328 19.99524,-4.85699 l 13.69492,-2.67946 7.10508,2.65593 c 4.77228,1.78392 10.5197,2.89493 17.50507,3.38383 6.64908,0.46537 10.38126,1.16303 10.34805,1.93438 -0.0449,1.04396 -24.17592,20.9082 -28.50367,23.4638 -0.95699,0.56512 -4.13163,0.22915 -8.1739,-0.86504 -8.23244,-2.22841 -15.01023,-0.90796 -21.40381,4.1699 -6.05175,4.80639 -5.95609,4.77802 -10.69541,3.17311 z"
       id="path865"
       inkscape:connector-curvature="0" />
    <path
       style="fill:#36439d;stroke-width:1.06666672"
       d="m 242.89799,402.28326 c -2.73378,-7.11365 -4.69284,-13.65751 -4.35347,-14.54192 0.49161,-1.28113 2.73639,-1.608 11.04278,-1.608 h 10.42573 l 12.12682,-6.92763 c 6.66974,-3.81019 12.60681,-6.89739 13.19348,-6.86044 0.97204,0.0612 24.91522,26.26432 30.41529,33.2861 4.22904,5.39907 3.44382,5.62254 -24.7108,7.0325 -14.28414,0.71534 -29.84074,1.58247 -34.57023,1.92697 l -8.59907,0.62634 z m 63.86825,-14.61761 c -9.1481,-10.89056 -16.63291,-20.37633 -16.63291,-21.07949 0,-0.70314 4.58931,-9.67268 10.19846,-19.9323 8.63799,-15.79961 10.14337,-19.2659 9.83848,-22.65385 l -0.35998,-4 h 35.96523 c 19.78088,0 36.22318,0.41736 36.53845,0.92746 0.31526,0.51012 -11.77641,20.18712 -26.87039,43.72669 -22.18427,34.59712 -27.88444,42.80048 -29.744,42.80586 -1.67977,0.005 -6.78794,-5.33561 -18.93334,-19.79437 z m 29.41153,16.76989 c 0.72514,-1.83099 49.15719,-76.55072 51.56985,-79.56063 2.13868,-2.6681 2.75153,-2.92049 4.1909,-1.72592 2.8555,2.36985 32.59595,37.14705 32.57665,38.09373 -0.0224,1.09975 -85.29678,44.24493 -87.27073,44.15524 -0.78223,-0.0355 -1.26223,-0.46863 -1.06667,-0.96242 z M 81.295396,382.11675 c -9.349461,-2.75987 -13.01732,-4.29834 -12.8,-5.36892 0.283526,-1.39676 34.284174,-12.9736 38.171264,-12.9969 1.96416,-0.0117 5.33334,7.84395 5.33334,12.43546 0,2.88944 -0.75459,3.82826 -5.34936,6.65546 -6.757067,4.15767 -9.034838,4.09253 -25.355244,-0.7251 z m 63.540414,-5.31579 -26.36419,-0.30473 -1.64033,-5.52359 c -1.04719,-3.52625 -1.27031,-5.89361 -0.61705,-6.54687 1.04183,-1.04184 92.32256,10.47184 96.58576,12.18282 2.04789,0.8219 -10.44068,0.85725 -67.96419,0.19237 z m 99.32148,-0.73255 c -0.25572,-0.25571 -27.92315,-4.10595 -61.48319,-8.55609 -33.56006,-4.45015 -61.75084,-8.37229 -62.64619,-8.71586 -2.28552,-0.87704 -2.02666,-2.43964 0.77209,-4.66074 1.32,-1.04756 16.32,-13.72218 33.33333,-28.1658 l 30.93333,-26.26116 5.33334,0.51903 c 2.93333,0.28545 13.49333,0.8083 23.46666,1.16187 L 232,302.03251 l 14.66666,8.11363 14.66667,8.11363 v 4.74768 c 0,6.26138 -5.2905,47.94101 -6.4836,51.07909 -0.77359,2.03469 -1.71322,2.4468 -5.57889,2.4468 -2.55674,0 -4.85784,-0.20921 -5.11355,-0.46493 z m 17.74909,-8.33507 c 1.14876,-14.04696 3.4018,-31.79708 4.12825,-32.52352 0.36717,-0.36718 1.16973,-0.16545 1.78346,0.44828 1.12416,1.12416 11.64857,28.333 11.64857,30.11513 0,0.93966 -15.97212,10.76011 -17.50038,10.76011 -0.42876,0 -0.45571,-3.96 -0.0599,-8.8 z m -205.25584,1.06667 c -3.113221,-8.33288 -9.717208,-27.77222 -9.717208,-28.60334 0,-2.1997 5.824167,-0.45761 28.266666,8.45497 14.686246,5.83235 23.466667,9.86825 23.466667,10.7864 0,1.91759 -30.336024,11.63149 -36.559734,11.7068 -3.778575,0.0458 -4.713346,-0.35599 -5.456391,-2.34483 z M 81.333332,346.33148 C 68.279999,341.1086 57.599999,336.4074 57.599999,335.88435 c 0,-0.53095 11.511345,-0.95101 26.061452,-0.95101 30.223819,0 28.328319,-0.85383 26.194109,11.79917 -0.83965,4.97803 -1.83715,7.70631 -3.0212,8.26341 -1.18111,0.5557 -9.643332,-2.31949 -25.501028,-8.66444 z m 34.845968,3.86482 c -0.27155,-2.6824 0.27541,-13.95065 0.7556,-15.56662 0.35432,-1.19239 8.90018,-6.07453 22.87236,-13.06667 12.26867,-6.13965 22.60981,-11.163 22.98032,-11.163 1.48945,0 -3.13505,4.26944 -23.03891,21.27002 -21.91262,18.71633 -23.42943,19.9086 -23.56937,18.52627 z M 55.636837,326.52775 c -1.463402,-0.92753 6.906908,-5.81095 28.341847,-16.53526 l 9.845352,-4.92582 h 15.114764 15.11477 l 8.63988,-5.49397 c 4.75193,-3.02169 17.27988,-11.15318 27.83988,-18.07001 16.00277,-10.48184 20.56565,-12.94961 27.40102,-14.81939 9.25268,-2.53102 5.32317,-2.94436 46.37595,4.87829 13.64564,2.6002 20.69737,3.48117 23.84112,2.97847 7.11341,-1.13748 5.19787,1.49538 -8.95668,12.31076 l -12.67193,9.68252 h -29.18756 -29.18756 l -32.3845,15.46667 -32.3845,15.46666 -28.156015,-0.0163 C 69.73687,327.44182 56.423243,327.0262 55.636837,326.52776 Z M 262.34084,313.23101 c -11.4531,-5.97698 -21.31777,-12.81596 -20.09284,-13.92998 0.23026,-0.20942 8.75687,-6.95378 18.94802,-14.98747 l 18.52935,-14.60671 13.47065,8.88512 c 12.19827,8.04587 16.46802,10.08379 45.20397,21.57547 17.45334,6.97969 31.73334,13.09736 31.73334,13.5948 0,0.49744 -23.64,0.90148 -52.53334,0.89786 -41.69936,-0.005 -53.09547,-0.29993 -55.25915,-1.42909 z m 84.32582,-14.94114 c -25.43994,-10.6314 -31.52843,-13.56422 -31.78912,-15.3128 -0.22889,-1.53528 5.19764,-8.31591 18.70295,-23.36994 C 344.04445,247.94322 353.29346,238.4 354.13385,238.4 c 0.84038,0 2.3757,2.16 3.41181,4.80001 6.29532,16.04036 24.27952,64.30934 24.54109,65.86751 0.20153,1.20036 -0.44763,1.95615 -1.82009,2.11908 -1.17333,0.13929 -16.29333,-5.66423 -33.6,-12.89673 z M 294.39999,272.4442 c -4.4,-3.26011 -8.61626,-6.52715 -9.36949,-7.26009 -1.11328,-1.0833 -0.84849,-4.00463 1.41537,-15.6151 1.53167,-7.85536 3.24483,-15.14195 3.80702,-16.19241 0.94351,-1.76296 3.23532,-1.90993 29.78463,-1.90993 23.58629,0 28.76247,0.26193 28.76247,1.45549 0,0.80051 -8.70752,11.24051 -19.35004,23.2 -23.29884,26.18193 -22.3432,25.73691 -35.04996,16.32204 z M 110.28981,252.00001 C 89.350049,236.23002 83.733332,231.49104 83.733332,229.59359 c 0,-2.7815 55.415698,-66.39359 57.838818,-66.39359 0.80945,0 14.04685,5.09126 29.41645,11.3139 20.44473,8.2774 29.18205,12.35688 32.55493,15.2 2.53561,2.13736 5.77476,4.6061 7.1981,5.4861 1.42334,0.88 2.58874,2.5727 2.58979,3.76155 0.002,2.91862 -18.61611,51.04425 -21.02174,54.33707 -1.05032,1.43767 -3.63409,3.3195 -5.74171,4.18182 -7.01949,2.87202 -45.04399,14.51957 -47.40048,14.51957 -1.35705,0 -13.35186,-8.30732 -28.87768,-20 z m 143.72074,12.8 c -3.50017,-6.54783 -22.54953,-51.14275 -22.30734,-52.22191 0.31305,-1.39498 41.36345,47.59753 41.36345,49.36614 0,0.62176 -13.9584,4.72243 -16.07483,4.72243 -1.0909,0 -2.43246,-0.84 -2.98128,-1.86666 z m 131.32278,-0.21355 c -5.68755,-2.61228 -5.72617,-3.91981 -0.49,-16.58645 3.43776,-8.31614 4.33987,-9.64321 6.74553,-9.92301 2.5856,-0.30074 3.57104,-2.34204 14.29451,-29.61069 6.33461,-16.10823 11.18509,-29.62006 10.77886,-30.02628 -0.40623,-0.40623 -7.76446,-1.10847 -16.35162,-1.56053 -8.58717,-0.45205 -16.08427,-1.29315 -16.66023,-1.86911 -0.68516,-0.68516 0.18199,-3.8664 2.50817,-9.20159 3.13593,-7.19235 3.38673,-8.42501 2.12587,-10.44825 -5.91085,-9.4848 -26.80432,-28.02719 -46.50218,-41.26943 C 320.83804,100.011 291.1642,86.74314 266.81192,80.570155 252.98212,77.064481 244.11883,75.87999 230.00327,75.651042 l -11.59674,-0.188093 -3.75408,8.717695 c -2.15554,5.005591 -4.31233,8.58321 -5.0651,8.40186 -0.72107,-0.17371 -11.05166,-10.635836 -22.95687,-23.249169 -11.9052,-12.613334 -24.44738,-25.891789 -27.87149,-29.507677 -6.61513,-6.985632 -8.00703,-10.41849 -3.82566,-9.43532 1.32,0.310373 39.84,3.439393 85.6,6.953379 45.76,3.513986 86.4827,6.702587 90.49489,7.085782 l 7.2949,0.696715 9.38464,9.70356 c 36.03892,37.263624 115.21463,121.993786 115.22047,123.303566 0.006,1.36547 -2.91862,1.6 -19.95295,1.6 h -19.96006 l -11.49973,29.33333 c -6.32484,16.13333 -11.50327,30.12199 -11.5076,31.08588 -0.004,0.9639 0.7121,2.02883 1.5921,2.36653 2.37358,0.91082 1.92168,3.40333 -2.54089,14.01426 -4.5915,10.91751 -5.86391,11.66405 -13.72577,8.05312 z M 79.199998,255.6236 c -18.363005,-5.5495 -32.266666,-10.28896 -32.266666,-10.99902 0,-0.68622 6.733186,-3.49167 14.962636,-6.23435 l 14.962634,-4.98666 20.237365,15.15171 c 11.130553,8.33344 20.237363,15.57763 20.237363,16.09822 0,2.03343 -7.04735,0.36463 -38.133332,-9.0299 z m 142.133332,6.27723 c -21.46997,-4.6942 -21.70132,-4.76616 -22.40002,-6.96757 C 198.36284,253.1359 215.5222,207.0178 217.88426,204 c 1.46024,-1.86561 2.86546,-1.66038 3.65176,0.53334 0.36799,1.02666 6.35292,14.54566 13.29986,30.04222 6.94693,15.49655 12.63078,28.81655 12.63078,29.6 0,2.31216 -8.56326,1.56678 -26.13333,-2.27473 z m 45.05001,-17.90082 C 260.9167,237.4 251.87269,226.48 246.28554,219.73334 c -5.58714,-6.74667 -11.00842,-13.56556 -12.04727,-15.15309 -1.90677,-2.91384 -1.57947,-5.11899 0.75801,-5.10715 0.69871,0.003 3.78219,-1.07646 6.85217,-2.4 5.11013,-2.20308 5.58334,-2.70416 5.6,-5.92968 0.0107,-2.02571 -1.11525,-5.1913 -2.64845,-7.44762 -1.46667,-2.15839 -2.66667,-4.46591 -2.66667,-5.12782 0,-1.18445 25.40082,-22.83464 26.79046,-22.83464 1.01007,0 3.30872,10.26551 9.55387,42.66666 l 5.44824,28.26667 -1.73105,11.73333 c -2.42885,16.46319 -2.71208,17.60001 -4.38494,17.60001 -0.81797,0 -5.95993,-5.4 -11.42657,-12 z M 34.563969,239.58368 c -0.31299,-0.81563 2.890649,-10.77563 7.119199,-22.13333 9.292861,-24.96019 11.294202,-29.71701 12.502862,-29.71701 1.165525,0 18.399369,36.16937 18.369366,38.55254 -0.01214,0.96391 -0.862064,2.09072 -1.888731,2.50403 -3.346901,1.34742 -34.547845,12.27676 -35.047501,12.27676 -0.267365,0 -0.742203,-0.66734 -1.055195,-1.48299 z M 294.66666,227.10286 c -0.73333,-0.7679 -1.31572,-2.38019 -1.29419,-3.58286 0.083,-4.63761 14.71929,-53.38025 16.33485,-54.39932 0.91136,-0.57487 1.84767,-0.8222 2.08068,-0.54962 0.23302,0.27259 9.18324,12.86645 19.88937,27.98636 11.9286,16.84634 19.23156,28.10095 18.86098,29.06667 -0.49425,1.28799 -3.38796,1.5768 -15.83822,1.58077 -8.37841,0.002 -20.51347,0.29495 -26.9668,0.64951 -8.95739,0.49215 -12.04878,0.31436 -13.06667,-0.75151 z M 68.493113,201.86356 c -4.817879,-11.03978 -8.759781,-20.79327 -8.759781,-21.67444 0,-1.2258 4.321818,-2.43664 18.4,-5.15509 10.12,-1.95414 21.759999,-4.66196 25.866668,-6.01739 7.76543,-2.56299 22.8282,-5.31834 25.04125,-4.58067 1.49636,0.4988 -47.880354,56.7473 -50.208076,57.19558 -1.123085,0.21628 -4.114594,-5.50285 -10.340061,-19.76799 z m 9.96968,-2.8963 c 1.138797,-0.86134 4.276145,-1.58134 6.971885,-1.6 3.4407,-0.0238 5.451513,-0.64185 6.747485,-2.07388 1.77323,-1.9594 1.685727,-2.14897 -2.215623,-4.8 -7.966682,-5.4135 -20.633208,-3.01214 -20.633208,3.91171 0,5.26183 4.94038,7.73064 9.129461,4.56217 z M 331.16577,184.53518 c -19.71903,-28.26617 -22.76047,-32.13657 -26.07749,-33.18504 -2.06522,-0.6528 -7.39714,-3.29364 -11.8487,-5.86853 L 285.14583,140.8 H 265.8846 c -19.01438,0 -19.35749,-0.041 -26.77272,-3.19642 l -7.51149,-3.19643 -17.76603,3.84394 c -11.55307,2.49966 -18.1301,3.47985 -18.80711,2.80283 -0.67701,-0.67701 4.20826,-11.53461 13.9695,-31.04751 l 15.01061,-30.006408 3.99632,0.0063 c 5.58343,0.0087 23.44255,2.75546 35.25868,5.422672 24.57872,5.548066 59.19375,21.482866 81.94358,37.722186 11.30583,8.07034 37.72739,32.87487 37.72739,35.41842 0,0.69754 -5.46521,12.99401 -12.1449,27.32548 -6.67969,14.33148 -12.47204,27.08797 -12.87188,28.34776 -1.6903,5.32565 -4.44512,2.26633 -26.75078,-29.70763 z m -44.58518,22.76897 c -2.27252,-10.13503 -11.3806,-56.45325 -11.3806,-57.87492 0,-2.38976 5.60213,-1.00553 16.76414,4.14226 11.25329,5.18988 11.50115,5.38057 11.43889,8.8 -0.0723,3.9744 -12.82256,49.87471 -14.25099,51.30315 -0.53377,0.53377 -1.63513,-2.19474 -2.57144,-6.37049 z M 172.8,169.60561 c -13.78667,-5.79992 -25.1965,-11.17387 -25.35519,-11.94213 -0.16877,-0.81704 2.16584,-2.39295 5.62479,-3.79681 5.24279,-2.12786 7.77006,-2.4 22.28775,-2.4 12.37894,0 17.51332,-0.41763 21.04187,-1.71153 2.56709,-0.94134 11.36201,-3.0668 19.54427,-4.72322 l 14.87683,-3.01168 6.45651,2.7343 c 4.94413,2.09384 8.90521,2.85498 16.9104,3.24945 8.22438,0.40527 10.38553,0.83407 10.13333,2.01062 -0.17631,0.82251 -6.32057,6.2837 -13.6539,12.13596 -14.32841,11.43459 -16.68972,12.33631 -24,9.16501 -4.38997,-1.90443 -14.75402,0.92912 -20.38981,5.57461 -2.25294,1.85707 -5.06689,3.35043 -6.25322,3.3186 -1.18633,-0.0318 -13.43697,-4.80325 -27.22363,-10.60318 z"
       id="path863"
       inkscape:connector-curvature="0" />
    <path
       style="fill:#2c388a;stroke-width:1.06666672"
       d="m 242.92896,402.25105 c -2.73784,-7.12975 -4.70553,-13.67295 -4.37264,-14.54045 0.4777,-1.24487 2.82977,-1.57726 11.16123,-1.57726 h 10.55598 l 11.9688,-6.93333 c 6.58284,-3.81334 12.32206,-6.93334 12.75382,-6.93334 1.67195,0 32.87051,35.15781 32.87051,37.04194 0,1.90215 -2.20658,2.16724 -28.8,3.45989 -13.2,0.64162 -27.86096,1.45439 -32.5799,1.80615 l -8.57991,0.63958 z m 64.335,-14.15212 c -10.39362,-12.3266 -16.33063,-20.23274 -16.33063,-21.74702 0,-1.30861 4.38,-10.37567 9.73333,-20.14903 7.62834,-13.92677 9.73333,-18.68167 9.73333,-21.98632 v -4.21655 h 35.80752 c 34.71418,0 35.79711,0.0625 35.46667,2.04745 -0.18747,1.1261 -12.34085,20.7921 -27.00752,43.7022 -20.84043,32.55384 -27.14793,41.66154 -28.86937,41.68588 -1.56286,0.0221 -6.94635,-5.59473 -18.53333,-19.33661 z m 30.75905,14.24053 c 1.88032,-3.51341 46.15214,-72.14019 48.85539,-75.73187 1.45949,-1.93916 3.3062,-3.37916 4.1038,-3.2 0.7976,0.17917 8.70282,8.71032 17.56714,18.95811 14.82709,17.14118 15.96225,18.74596 14.1838,20.05175 -3.61882,2.65705 -82.31636,41.84923 -84.03288,41.84923 -1.31721,0 -1.47236,-0.44153 -0.67725,-1.92722 z M 81.333332,382.12772 c -7.878977,-2.32594 -13.066667,-4.39837 -13.066667,-5.22001 0,-1.26074 34.840305,-13.1801 38.496995,-13.17037 1.87264,0.005 5.23634,7.95831 5.23634,12.3811 0,2.80783 -0.80045,3.79361 -5.40421,6.65546 -6.798143,4.22596 -8.944319,4.17106 -25.262458,-0.64618 z m 37.623248,-6.62341 c -1.49829,-2.4243 -3.47366,-10.75325 -2.66838,-11.25095 0.73529,-0.45443 86.80654,10.4796 91.7118,11.65056 0.88,0.21007 -18.65167,0.43763 -43.40372,0.50569 -27.89481,0.0767 -45.24549,-0.26747 -45.6397,-0.9053 z m 125.20552,0.56891 c -0.25306,-0.25306 -28.05306,-4.13239 -61.77777,-8.62074 -41.2501,-5.48988 -61.81663,-8.64345 -62.84227,-9.63592 -1.31566,-1.27311 -1.13795,-1.77942 1.2968,-3.6946 1.55177,-1.22062 14.71784,-12.31965 29.25794,-24.66449 14.54009,-12.34486 28.35653,-24.01212 30.7032,-25.92726 l 4.26666,-3.48205 23.46667,0.98707 23.46667,0.98708 14.66666,8.11873 c 14.56644,8.06325 14.66681,8.14472 14.68632,11.92218 0.0279,5.41115 -5.47249,49.18994 -6.54217,52.07012 -0.73736,1.98541 -1.69439,2.4 -5.53997,2.4 -2.55674,0 -4.85568,-0.20705 -5.10874,-0.46012 z m 17.90187,-7.80655 c 0.65743,-9.76009 3.4925,-32.5787 4.12648,-33.21267 1.12103,-1.12104 2.72364,2.07623 7.89797,15.75688 3.94857,10.43974 5.09601,14.64393 4.26882,15.64064 -1.59765,1.92506 -13.69154,9.01515 -15.37753,9.01515 -1.06607,0 -1.28486,-1.72016 -0.91574,-7.2 z M 55.670625,365.60001 c -5.025616,-13.51327 -8.852314,-25.57387 -8.292076,-26.1341 0.92434,-0.92435 6.667412,1.03756 29.954783,10.23298 12.268711,4.8445 21.333333,9.00522 21.333333,9.79215 0,1.70632 -31.456451,11.63898 -36.990027,11.67993 -3.76509,0.0278 -4.007376,-0.19687 -6.006013,-5.57096 z m 24.59604,-19.67954 c -12.466666,-5.00645 -22.666666,-9.52664 -22.666666,-10.04488 0,-0.51956 11.714016,-0.94225 26.113011,-0.94225 h 26.11301 l 0.64352,2.56399 c 0.35394,1.4102 0.003,5.8502 -0.77968,9.86667 -1.28833,6.61065 -1.6759,7.31956 -4.08986,7.48088 -1.46667,0.098 -12.866669,-3.91797 -25.333335,-8.92441 z m 36.166345,-3.25814 c 0.23206,-4.10703 0.99625,-8.15932 1.69818,-9.0051 1.55023,-1.86791 43.93568,-23.67924 44.64226,-22.97267 0.54553,0.54554 -43.63263,38.39735 -45.57305,39.04694 -0.82512,0.27622 -1.06013,-1.8886 -0.76739,-7.06917 z m -60.3853,-16.1614 c -1.644817,-0.64337 2.100461,-2.99469 17.720347,-11.12502 l 19.80597,-10.30924 h 15.288263 15.28828 l 18.72471,-11.91435 c 10.29859,-6.5529 22.50423,-14.5479 27.12362,-17.76666 6.1362,-4.27567 10.73405,-6.5185 17.06666,-8.32514 9.8458,-2.80892 6.45641,-3.11567 44.3946,4.01795 15.24037,2.86569 24.29795,4.09174 27.01653,3.65702 6.58559,-1.05307 4.66486,1.44 -9.32583,12.10484 l -12.7158,9.69301 H 207.1932 177.95134 l -32.40576,15.46667 -32.40576,15.46666 -27.503248,-0.075 C 70.509791,327.35037 57.194802,326.9496 56.04771,326.5009 Z m 205.80315,-14.0931 c -13.44944,-7.14685 -18.58322,-10.67975 -18.63453,-12.82364 -0.0203,-0.84767 33.61017,-27.45665 35.72986,-28.27005 0.8701,-0.33389 6.9733,2.98136 14.02456,7.61814 10.88016,7.1546 16.53072,9.84187 43.98136,20.91655 17.32351,6.98899 31.97218,13.18214 32.55259,13.76255 0.69594,0.69594 -16.72966,1.05529 -51.17384,1.05529 -51.14722,0 -52.31718,-0.0468 -56.48,-2.25884 z m 83.2158,-14.75385 C 321.4996,287.73649 315.13309,284.64352 314.88281,282.99006 314.51498,280.56 351.63831,238.4 354.14591,238.4 c 0.83375,0 2.36184,2.16 3.39576,4.80001 7.48899,19.12238 24.32499,64.66622 24.32499,65.80264 0,3.19623 -8.37212,0.61437 -36.8,-11.34867 z m -51.12667,-25.66954 c -4.653,-3.48944 -8.8209,-6.71344 -9.26201,-7.16443 -0.87398,-0.89358 3.70834,-27.05742 5.42114,-30.95334 l 1.05514,-2.4 h 28.82286 c 22.66561,0 28.82287,0.29086 28.82287,1.36154 0,0.74884 -8.74041,11.18884 -19.42315,23.2 -23.46053,26.3779 -22.26056,25.83759 -35.43685,15.95623 z M 136,270.70726 c -1.17334,-0.67534 -13.56282,-9.81052 -27.53218,-20.3004 C 89.353921,236.05385 83.151163,230.846 83.401147,229.36084 c 0.383471,-2.27819 53.159153,-62.76531 56.665203,-64.94495 2.11725,-1.31626 4.95476,-0.38447 30.60031,10.04867 24.21781,9.8523 29.13313,12.23732 34.31578,16.65078 3.32702,2.83323 6.56702,5.15133 7.2,5.15133 0.63299,0 1.15089,0.97836 1.15089,2.17412 0,4.09149 -19.25473,52.64687 -22.04125,55.58226 -2.77326,2.9214 -6.53252,4.33636 -34.7846,13.09265 -17.23532,5.34182 -17.41261,5.37287 -20.50748,3.59156 z m 249.33333,-6.1208 c -5.62802,-2.58493 -5.67437,-3.58754 -0.73632,-15.92516 3.31105,-8.27262 4.17804,-9.56297 6.77431,-10.08222 2.73047,-0.5461 3.52745,-1.99313 9.61298,-17.45394 14.34769,-36.45157 16.3754,-41.98765 15.646,-42.71705 -0.60538,-0.60538 -14.76332,-1.69393 -30.11619,-2.31553 -3.5525,-0.14384 -3.60992,-2.29974 -0.26978,-10.1294 1.69895,-3.98252 3.089,-7.82965 3.089,-8.54918 0,-2.84161 -14.35622,-17.82699 -26.31321,-27.46639 C 346.02317,116.2451 334.0756,108.44116 316.26666,99.409114 298.75018,90.525381 282.83303,84.54257 265.06666,80.164472 250.51941,76.57965 245.09505,75.877863 229.41114,75.551478 l -11.12218,-0.231454 -3.6699,8.794048 c -2.01845,4.836727 -4.22613,8.649722 -4.90595,8.473322 C 209.03329,92.410995 199.15356,82.426668 187.75818,70.400001 176.3628,58.373335 163.73301,45.060706 159.69196,40.816383 c -6.79869,-7.140715 -8.55493,-10.774403 -4.91464,-10.168486 0.81914,0.136344 39.16934,3.136368 85.22268,6.666721 107.56049,8.245367 96.53862,6.954712 101.94444,11.937627 8.53062,7.863252 120.45761,126.805625 120.80043,128.371995 0.29452,1.34567 -2.58688,1.5792 -19.73334,1.59932 l -20.07821,0.0236 -11.93956,30.64313 c -11.51944,29.56485 -11.86663,30.69461 -9.86666,32.10655 1.14008,0.80489 2.07289,2.0394 2.07289,2.74334 0,0.70395 -1.831,5.80541 -4.06887,11.33657 -4.6246,11.4302 -5.82604,12.17118 -13.79779,8.50977 z m -165.06667,-2.9046 c -9.38666,-2.03918 -18.17054,-4.41852 -19.51971,-5.28741 -2.9897,-1.92542 -3.44037,-0.20179 7.49398,-28.66111 7.87745,-20.50296 10.6324,-26.28722 11.90856,-25.00318 1.03782,1.04423 27.31717,60.18595 27.31717,61.47734 0,2.30078 -8.70318,1.49265 -27.2,-2.52564 z M 78.399998,254.9794 c -17.013333,-5.15294 -30.867671,-9.79133 -30.787419,-10.30752 0.08026,-0.51619 6.71899,-3.20498 14.75275,-5.97509 l 14.606835,-5.03654 15.113916,11.40081 c 8.31266,6.27045 17.43702,13.2169 20.27637,15.43655 l 5.16245,4.03573 -4.09578,-0.0925 C 111.17644,264.39 95.413331,260.13234 78.399998,254.9794 Z M 255.15489,229.95119 C 233.73825,204.06945 230.89653,199.53759 236,199.40371 c 1.32,-0.0347 4.56,-1.11911 7.2,-2.40996 6.12726,-2.99598 6.58858,-5.62078 2.22236,-12.64455 -1.80897,-2.91002 -3.28903,-5.48539 -3.28903,-5.72303 0,-1.35323 26.29008,-22.59745 27.04653,-21.85549 1.5221,1.49297 13.62877,64.13478 13.61174,70.42932 -0.0156,5.76661 -2.93398,26.23781 -3.98228,27.93399 -0.29437,0.47631 -0.8872,0.86602 -1.31739,0.86602 -0.43019,0 -10.48186,-11.72197 -22.33704,-26.04882 z m -220.571838,9.68222 c -0.302497,-0.7883 3.367315,-11.9483 8.155137,-24.8 9.297046,-24.95558 10.207504,-27.10007 11.505542,-27.10007 0.459438,0 4.855044,8.43971 9.768016,18.75491 6.995239,14.6871 8.692538,19.14064 7.825507,20.53333 -0.875462,1.40624 -32.484409,13.72733 -35.870732,13.98233 -0.458412,0.0346 -1.080974,-0.58221 -1.38347,-1.3705 z M 294.04444,226.48889 c -0.39111,-0.3911 -0.6935,-1.7111 -0.67197,-2.93333 0.0596,-3.38752 14.40165,-52.82301 15.70201,-54.12338 0.62679,-0.62679 1.61722,-0.84446 2.20094,-0.48371 0.58372,0.36076 9.79465,12.90078 20.46874,27.86672 12.01009,16.83912 19.17531,27.81571 18.79845,28.79781 -0.51739,1.3483 -4.75882,1.587 -28.19803,1.587 -15.17396,0 -27.90903,-0.32 -28.30014,-0.71111 z m 37.2706,-41.86705 c -21.37436,-30.61826 -22.47651,-31.98617 -27.1961,-33.75372 -2.70542,-1.01322 -8.06687,-3.69303 -11.91433,-5.95516 L 285.20924,140.8 H 265.9163 c -19.0496,0 -19.38767,-0.0403 -26.80442,-3.19642 l -7.51149,-3.19643 -17.76603,3.84394 c -11.55307,2.49966 -18.1301,3.47985 -18.80711,2.80283 -0.67701,-0.67701 4.23395,-11.58599 14.04301,-31.19443 l 15.08409,-30.153338 8.66764,0.722854 c 14.44931,1.205027 35.34682,5.799901 51.28279,11.27589 18.47486,6.348412 45.69734,20.407114 61.49521,31.758424 11.1961,8.04478 37.33334,32.66205 37.33334,35.16228 0,0.72836 -4.22655,10.33556 -9.39232,21.34935 -5.16579,11.01378 -11.04579,23.74453 -13.06667,28.29056 -2.22864,5.01336 -4.30541,8.26596 -5.27823,8.26667 -0.8959,6.5e-4 -11.43748,-14.08521 -23.88107,-31.91034 z m -43.31505,28.38992 c 0,-0.17688 -2.57638,-13.25688 -5.7253,-29.06667 -3.14891,-15.8098 -6.01691,-30.30509 -6.37333,-32.21175 -0.57823,-3.09326 -0.38405,-3.46667 1.80272,-3.46667 1.34791,0 6.88871,2.16 12.31288,4.8 5.42418,2.64 10.5644,4.8 11.42272,4.8 0.85833,0 1.82327,0.6845 2.1443,1.52111 0.68511,1.78536 -13.60517,53.91908 -14.78399,53.93486 -0.44,0.006 -0.8,-0.13402 -0.8,-0.31088 z M 174.11592,169.7223 c -13.64958,-5.71841 -25.33129,-10.911 -25.95937,-11.53908 -0.8115,-0.81149 0.61987,-1.94854 4.94632,-3.92925 5.74399,-2.62969 7.03846,-2.7873 22.89192,-2.7873 12.53017,0 17.99068,-0.42374 21.47109,-1.6662 5.28298,-1.88592 28.78549,-6.86713 32.40076,-6.86713 1.3053,0 5.86531,1.44 10.13336,3.2 6.1962,2.5551 9.33005,3.2 15.55042,3.2 4.28469,0 8.00134,0.36 8.25924,0.8 0.60306,1.0289 -24.00065,20.74068 -27.55992,22.08019 -1.9486,0.73335 -4.23511,0.50473 -8.27141,-0.82705 -5.03488,-1.66128 -6.1295,-1.69001 -11.23583,-0.29491 -3.16024,0.8634 -7.71239,3.22951 -10.31285,5.36039 -2.56045,2.09809 -5.29457,3.78158 -6.07584,3.74108 -0.78126,-0.0405 -12.58832,-4.75233 -26.23789,-10.47074 z"
       id="path861"
       inkscape:connector-curvature="0" />
    <path
       style="fill:#0f266a;stroke-width:1.06666672"
       d="m 242.97606,401.99445 c -3.73249,-9.71677 -4.72716,-13.43643 -3.8694,-14.46996 0.81273,-0.97928 4.41318,-1.39115 12.16099,-1.39115 6.05354,0 11.2702,-0.42677 11.59258,-0.94839 0.32238,-0.52161 5.48935,-3.72461 11.48216,-7.11777 l 10.89603,-6.16939 6.81098,7.38445 c 17.18478,18.63166 25.99183,29.5032 24.83651,30.65852 -0.68596,0.68596 -11.10481,1.69557 -25.42408,2.46365 -13.34401,0.71578 -28.58184,1.60908 -33.86184,1.98513 l -9.6,0.68373 z m 64.33717,-14.40927 c -8.90303,-10.46195 -16.11324,-19.8742 -16.11324,-21.0343 0,-1.1548 4.39013,-10.2326 9.75583,-20.1729 6.85852,-12.70579 9.78876,-19.22724 9.86667,-21.95895 l 0.11084,-3.88569 34.81367,-0.28109 c 28.59972,-0.23091 34.91327,-0.0215 35.37161,1.17284 0.30685,0.79966 -11.41289,20.12616 -26.04389,42.94776 -21.49074,33.52149 -27.08661,41.55658 -29.12503,41.82042 -2.10432,0.27237 -5.19832,-2.81692 -18.63646,-18.60809 z M 81.866665,382.1063 c -7.854578,-2.25494 -13.6,-4.45399 -13.6,-5.20539 0,-0.74285 7.20733,-3.58782 16.8,-6.63151 24.255615,-7.69611 22.136825,-7.48966 24.728495,-2.40957 1.21266,2.37702 2.20484,5.91956 2.20484,7.87231 0,3.14514 -0.64522,3.9415 -5.65184,6.97583 -3.10851,1.88395 -6.828513,3.39778 -8.266668,3.36404 -1.438155,-0.0337 -8.734827,-1.8183 -16.214827,-3.96571 z m 163.359505,-6.03568 c -0.25449,-0.25449 -28.29449,-4.15371 -62.31111,-8.66493 -35.54577,-4.71401 -62.43458,-8.74864 -63.22676,-9.48708 -1.10088,-1.0262 4.66885,-6.42185 28.65993,-26.80173 16.52107,-14.03428 31.45889,-26.66107 33.19518,-28.05952 l 3.15687,-2.54263 23.64986,0.78188 23.64986,0.78188 14.6657,8.16076 c 14.52524,8.0826 14.66571,8.19677 14.66667,11.9208 10e-4,5.13087 -6.0698,51.91094 -6.91435,53.27745 -0.65262,1.05597 -8.24598,1.579 -9.19185,0.63312 z m 17.58716,-11.53728 c 1.08073,-16.45003 2.9357,-28.66074 4.28632,-28.21567 1.29124,0.42549 11.30034,25.79321 11.30034,28.64031 0,1.09838 -2.92362,3.47653 -7.56036,6.14983 -4.15821,2.39737 -7.82682,4.35886 -8.15249,4.35886 -0.32566,0 -0.26888,-4.92 0.12619,-10.93333 z m -205.851636,2.84662 c -3.105163,-7.4317 -8.961695,-24.18796 -8.961695,-25.64053 0,-0.82695 1.05239,-1.45682 2.4,-1.43643 3.770003,0.0571 47.199999,17.66019 47.199999,19.13117 0,1.49482 -31.373358,11.71625 -36.054428,11.74652 -2.427071,0.0157 -3.287292,-0.69756 -4.583876,-3.80073 z M 81.334556,346.27415 C 69.45523,341.44606 59.15923,336.91924 58.454557,336.21457 c -0.997189,-0.9972 4.555098,-1.28123 25.045119,-1.28123 h 26.326344 l 0.58087,2.4 c 0.31948,1.32 -0.0351,5.76 -0.78781,9.86667 -1.24417,6.7874 -1.61054,7.48421 -4.02722,7.65958 -1.46219,0.10613 -12.377978,-3.75734 -24.257304,-8.58544 z M 57.333332,326.73139 c -1.026666,-0.26829 -1.857876,-0.81261 -1.847133,-1.20959 0.01074,-0.39699 8.770745,-5.17059 19.466667,-10.60802 l 19.447132,-9.88622 15.020222,0.0195 15.02024,0.0195 18.04643,-11.51807 c 9.92554,-6.33495 22.36644,-14.41549 27.64644,-17.95677 7.03737,-4.71994 11.76114,-7.02127 17.69595,-8.6211 9.18084,-2.47485 8.30987,-2.5626 45.11282,4.54521 10.49148,2.02623 21.4398,3.68406 24.32961,3.68406 3.21368,0 4.99944,0.41219 4.59823,1.06137 -0.36078,0.58375 -5.96195,5.14375 -12.44703,10.13333 l -11.79107,9.07204 -28.94926,8.2e-4 -28.94925,8.3e-4 -33.49736,15.99917 -33.49738,15.99918 -26.769294,-0.12373 c -14.723113,-0.068 -27.609297,-0.34325 -28.635964,-0.61155 z M 345.06666,297.54472 c -22.3798,-9.44813 -29.94399,-13.09874 -30.17515,-14.56304 -0.40986,-2.59651 37.66502,-45.24381 39.69691,-44.4641 0.79346,0.30447 2.5058,3.52259 3.80519,7.15134 1.29941,3.62877 7.11242,19.11083 12.91781,34.4046 5.80537,15.29376 10.55524,28.37376 10.55524,29.06667 0,3.00589 -8.72798,0.25575 -36.8,-11.59547 z m -50.93333,-26.1019 c -5.58316,-4.12365 -9.33267,-7.64674 -9.33168,-8.76815 0.003,-3.10812 4.24573,-25.1646 5.33657,-27.74133 l 1.01604,-2.4 h 28.82286 c 15.85258,0 28.82287,0.29315 28.82287,0.65145 0,0.35831 -5.64,6.88971 -12.53333,14.51423 -6.89333,7.62452 -15.78569,17.65136 -19.76079,22.28187 -9.14071,10.64783 -9.87084,10.69554 -22.37254,1.46193 z M 109.86666,251.06888 C 95.493331,240.19318 83.592282,230.68697 83.419887,229.94399 83.148601,228.77482 135.484,168.22421 139.9925,164.49105 c 1.39939,-1.15874 6.26075,0.50035 30.83441,10.52312 21.04559,8.58379 30.26298,12.88162 33.0852,15.42677 2.15167,1.94043 5.15167,4.34024 6.66667,5.3329 1.515,0.99267 2.75455,2.31011 2.75455,2.92765 0,2.45796 -19.33012,51.1609 -21.43642,54.00982 -1.2394,1.67639 -3.28421,3.5176 -4.54402,4.09161 -6.0186,2.74226 -44.62951,14.12502 -47.77774,14.0852 -2.95548,-0.0373 -8.10475,-3.47258 -29.70849,-19.81924 z m 276.0295,13.76062 c -2.18377,-0.89642 -4.26121,-2.54583 -4.61653,-3.66536 -0.37613,-1.18504 1.02375,-6.25436 3.35053,-12.13315 3.61816,-9.14157 4.25939,-10.09765 6.77224,-10.09765 2.64374,0 3.32384,-1.39757 14.30785,-29.4017 6.3427,-16.17094 11.29711,-30.01429 11.00979,-30.76302 -0.37387,-0.9743 -5.00137,-1.55476 -16.27726,-2.04177 -10.13685,-0.43782 -16.02806,-1.12246 -16.52095,-1.91999 -0.42134,-0.68174 0.62388,-4.50586 2.32272,-8.49806 1.69882,-3.99219 3.08878,-7.99252 3.08878,-8.88961 0,-2.76107 -12.47244,-16.30112 -23.30582,-25.3007 -31.48768,-26.15774 -64.0111,-42.857537 -101.35789,-52.044217 -14.38276,-3.537915 -18.70561,-4.153527 -31.51049,-4.487359 l -14.84087,-0.386912 -3.71308,8.8 c -2.04219,4.84 -4.09101,8.8 -4.55293,8.8 -0.83709,0 -49.32186,-50.704204 -54.86681,-57.378385 -1.60466,-1.931445 -2.65547,-3.773816 -2.33512,-4.094159 0.78544,-0.785445 180.68981,12.988249 184.48383,14.124302 2.2068,0.660793 124.90649,130.0469 125.41072,132.24488 0.28729,1.25235 -3.00818,1.50336 -19.73695,1.50336 h -20.08183 l -11.97896,30.66667 -11.97897,30.66667 2.27088,1.72147 c 2.57696,1.95352 2.56705,2.0016 -3.32669,16.1452 -3.80549,9.1323 -4.51154,9.51009 -12.01619,6.42949 z M 221.86666,261.81 c -21.32977,-4.42777 -22.40125,-4.84497 -22.396,-8.72046 0.004,-3.52041 18.17774,-49.60293 19.75652,-50.09799 0.93923,-0.29451 26.57613,55.29634 27.98414,60.68056 0.74409,2.84542 -4.5359,2.45748 -25.34466,-1.86211 z M 34.705953,240.06358 c -0.671622,-1.08671 0.274762,-4.10468 6.876942,-21.93024 9.606813,-25.93791 11.833133,-30.78083 13.403997,-29.15777 0.758245,0.78343 5.079946,9.31001 9.603781,18.94795 5.967459,12.71354 7.948407,17.96224 7.216919,19.12189 -0.554529,0.87912 -7.458089,3.9085 -15.341246,6.73197 -17.772779,6.36557 -21.114674,7.33099 -21.760393,6.2862 z M 293.66448,225.45776 c -0.58906,-1.53507 12.45048,-50.76902 14.49453,-54.7276 0.43637,-0.84509 1.31758,-1.71124 1.95825,-1.9248 1.78412,-0.59471 40.93954,54.69838 40.16452,56.71806 -0.56204,1.46468 -4.13845,1.67658 -28.29605,1.67658 -24.59954,0 -27.7265,-0.19236 -28.32125,-1.74224 z m 56.75249,-13.99109 C 348.35022,208.68 338.14092,194.19923 327.72963,179.28717 309.55519,153.256 308.6085,152.11064 303.99999,150.57743 c -2.64,-0.8783 -7.92,-3.52919 -11.73333,-5.89086 l -6.93333,-4.29395 -18.78258,0.29732 -18.78258,0.29732 -8.07176,-3.36028 -8.07175,-3.36028 -17.85759,3.84064 c -13.9989,3.01075 -18.03855,3.54784 -18.69505,2.48559 -0.52135,-0.84355 4.8517,-12.53535 14.23431,-30.97398 17.3269,-34.05071 13.51082,-30.734652 32.29367,-28.062192 27.36014,3.892853 47.89472,10.598454 73.86284,24.120032 23.34636,12.15643 40.58705,24.53315 55.98156,40.18797 10.83455,11.01775 11.39485,11.80393 10.51453,14.75325 -0.51143,1.71343 -4.76057,11.27533 -9.44252,21.24866 -4.68195,9.97333 -10.22226,21.85333 -12.31179,26.4 -2.08953,4.54667 -4.30108,8.26667 -4.91454,8.26667 -0.61346,0 -2.80636,-2.28 -4.87311,-5.06667 z"
       id="path859"
       inkscape:connector-curvature="0" />
    <path
       style="fill:#2e2e30;stroke-width:1.06666672"
       d="m 246.58068,410.50397 c -4.6838,-11.04813 -7.7876,-20.18879 -7.45143,-21.94445 0.31419,-1.64094 1.81232,-1.93326 11.25703,-2.19654 l 10.89459,-0.30369 11.97015,-7.06228 11.97016,-7.06227 4.76837,5.23264 c 16.43768,18.03807 27.85037,31.81937 27.02996,32.63978 -0.51622,0.51622 -13.3768,1.62812 -28.57906,2.4709 -15.20225,0.84277 -30.39746,1.83176 -33.76713,2.19776 l -6.12668,0.66545 z M 80.075444,381.43812 c -6.118506,-1.86199 -11.289474,-3.88019 -11.491041,-4.4849 -0.295138,-0.88541 35.582187,-13.21988 38.452737,-13.21988 1.36157,0 4.91658,8.88925 4.90572,12.26667 -0.009,2.6483 -0.84341,3.70573 -4.8425,6.13333 -6.38585,3.87646 -12.521023,3.71863 -27.024916,-0.69522 z M 181.06491,367.02996 c -33.29429,-4.51373 -61.02487,-8.69658 -61.62349,-9.2952 -0.74013,-0.74013 1.73514,-3.43746 7.73507,-8.429 4.85293,-4.03732 19.7528,-16.64631 33.11082,-28.01997 l 24.28731,-20.67939 23.68349,0.78339 23.68347,0.7834 14.26194,8.01851 c 7.84406,4.41018 14.52866,8.7136 14.85465,9.56313 0.68072,1.77392 -4.9523,49.68813 -6.26758,53.31184 -0.77376,2.13177 -1.55957,2.38715 -7.03086,2.28504 -3.38785,-0.0633 -33.40052,-3.80802 -66.69482,-8.32175 z M 81.333332,345.97433 C 68.866665,340.9551 58.666665,336.41755 58.666665,335.8909 c 0,-0.53842 10.955479,-0.95756 25.029137,-0.95756 29.099228,0 28.002238,-0.43291 26.094118,10.29758 -1.59727,8.9824 -1.99696,9.97474 -3.99514,9.91919 -0.98713,-0.0274 -11.994782,-4.15655 -24.461448,-9.17578 z m -22.4,-19.26044 c -1.32,-0.25425 -2.392775,-0.78887 -2.383944,-1.18807 0.0089,-0.3992 8.201171,-4.97174 18.205202,-10.16122 l 18.189149,-9.4354 15.183021,0.14439 15.18302,0.14438 24.47844,-15.82448 c 13.46315,-8.70346 26.39844,-17.05643 28.74511,-18.56215 2.34667,-1.50572 7.57686,-3.59606 11.62266,-4.64518 8.36366,-2.16881 11.26016,-1.89241 41.17734,3.92945 9.09333,1.76955 20.37333,3.53245 25.06666,3.91755 l 8.53334,0.70018 -12.8,9.83027 -12.8,9.83026 -28.96194,0.0364 -28.96194,0.0364 -33.80945,16 -33.80945,16 -25.22861,-0.14526 c -13.875735,-0.0799 -26.308608,-0.35328 -27.628608,-0.60752 z M 347.30552,298.21518 c -31.55373,-13.236 -32.92622,-13.91593 -32.44046,-16.07127 0.63094,-2.79949 37.42892,-43.21057 39.34718,-43.21057 1.3756,0 2.51897,1.93309 4.25859,7.2 1.30796,3.96 7.10709,19.60417 12.88697,34.76482 5.77987,15.16066 10.50886,28.00066 10.50886,28.53333 0,2.515 -8.07065,-0.10421 -34.56114,-11.21631 z m 37.49447,-33.97583 c -2.45402,-0.99095 -2.92101,-1.80445 -2.85795,-4.97859 0.0415,-2.08675 1.61391,-7.39409 3.49434,-11.79409 2.94498,-6.89091 3.8218,-8.04679 6.32463,-8.33751 1.59811,-0.18564 2.90565,-0.47055 2.90565,-0.63314 0,-0.1626 5.25725,-13.65336 11.68277,-29.97948 6.42553,-16.32613 11.4372,-30.08122 11.13705,-30.56687 -0.30015,-0.48564 -4.2374,-0.94574 -8.74944,-1.02241 -15.89886,-0.2702 -24.15776,-1.32471 -24.50018,-3.12822 -0.17415,-0.91719 1.09943,-4.98702 2.83016,-9.04405 3.70846,-8.69303 3.82606,-8.32794 -6.06237,-18.82067 C 365.23165,129.19741 339.57051,110.61777 315.65208,98.6166 287.4033,84.442659 258.99279,76.379069 233.6,75.328235 l -15.46667,-0.64006 -3.03288,7.388167 C 209.89299,94.761896 212.51263,96.047997 185.46137,67.525136 161.25526,42.002195 152.53333,32.39488 152.53333,31.254492 c 0,-0.338668 3,-0.314648 6.66667,0.05338 3.66666,0.368026 44.1961,3.560199 90.06541,7.093718 45.86931,3.533518 84.8401,6.712849 86.60175,7.065179 2.5122,0.502442 16.44473,14.64058 64.60125,65.554671 33.76903,35.70274 61.39825,65.72023 61.39825,66.70552 0,1.63854 -1.66146,1.72949 -19.46667,1.06575 l -19.46667,-0.72569 -12.14871,31.47509 -12.14872,31.47509 2.25026,1.8914 2.25026,1.89141 -3.99276,10.13333 c -3.93647,9.99045 -4.04506,10.13585 -7.70155,10.31192 -2.03983,0.0982 -5.02877,-0.35443 -6.64211,-1.00591 z m -166.24306,-3.29317 c -15.8705,-3.40935 -19.09027,-4.79091 -19.09027,-8.19133 0,-2.91619 17.09537,-46.09698 19.07055,-48.16982 1.60688,-1.68634 2.67444,0.30803 15.06279,28.13935 7.33333,16.47488 13.49333,30.37161 13.68888,30.88164 0.73163,1.90814 -13.67744,0.57423 -28.73195,-2.65984 z M 35.199999,237.83902 c 0,-1.9588 14.887636,-42.72682 17.226365,-47.17235 C 52.966479,189.64 53.797293,188.8 54.272616,188.8 c 1.415915,0 18.256236,36.10387 17.617149,37.7693 -0.323426,0.84283 -1.390933,1.85409 -2.37224,2.24723 C 62.585788,231.59358 37.918993,240 36.702055,240 c -0.82613,0 -1.502056,-0.97243 -1.502056,-2.16098 z M 293.89014,225.14066 c -0.37104,-1.16907 2.3647,-12.40983 6.32813,-26.00132 3.83994,-13.16807 6.98172,-24.90259 6.98172,-26.0767 0,-2.57972 2.90492,-5.27706 4.19737,-3.89743 0.49883,0.53247 9.59813,13.15938 20.22067,28.0598 15.11895,21.20761 19.05383,27.40478 18.11723,28.53333 -0.94747,1.14162 -6.81528,1.44166 -28.194,1.44166 -25.73739,0 -27.02802,-0.0961 -27.65112,-2.05934 z m 39.86311,-37.67399 c -25.41202,-36.50932 -24.7569,-35.69765 -30.09298,-37.28477 -2.45315,-0.72964 -7.79821,-3.37906 -11.8779,-5.88759 l -7.41761,-4.56097 h -19.50449 c -18.50707,0 -19.85803,-0.14154 -26.41786,-2.76761 l -6.91337,-2.76762 -15.56111,3.30095 C 199.45517,141.00188 195.2,141.4581 195.2,139.72572 c 0,-1.72101 28.60171,-58.410603 29.86345,-59.190401 0.62898,-0.388731 5.56701,-0.16258 10.97341,0.502557 29.99345,3.690028 53.61759,11.152208 80.7867,25.518184 22.32696,11.80563 37.40987,22.57065 53.0431,37.85805 9.68181,9.46764 12,12.31605 12,14.74466 0,1.65555 -2.55578,8.16211 -5.6795,14.459 -3.12371,6.2969 -8.75163,18.2889 -12.50646,26.6489 -4.88702,10.88076 -7.34007,15.2 -8.63262,15.2 -1.15561,0 -8.82193,-10.08026 -21.29483,-28 z"
       id="path857"
       inkscape:connector-curvature="0" />
    <path
       style="fill:#0f1941;stroke-width:1.06666672"
       d="m 246.58068,410.50397 c -4.6838,-11.04813 -7.7876,-20.18879 -7.45143,-21.94445 0.31419,-1.64094 1.81232,-1.93326 11.25703,-2.19654 l 10.89459,-0.30369 11.97015,-7.06228 11.97016,-7.06227 4.76837,5.23264 c 16.43768,18.03807 27.85037,31.81937 27.02996,32.63978 -0.51622,0.51622 -13.3768,1.62812 -28.57906,2.4709 -15.20225,0.84277 -30.39746,1.83176 -33.76713,2.19776 l -6.12668,0.66545 z M 80.075444,381.43812 c -6.118506,-1.86199 -11.289474,-3.88019 -11.491041,-4.4849 -0.295138,-0.88541 35.582187,-13.21988 38.452737,-13.21988 1.36157,0 4.91658,8.88925 4.90572,12.26667 -0.009,2.6483 -0.84341,3.70573 -4.8425,6.13333 -6.38585,3.87646 -12.521023,3.71863 -27.024916,-0.69522 z M 181.06491,367.02996 c -33.29429,-4.51373 -61.02487,-8.69658 -61.62349,-9.2952 -0.74013,-0.74013 1.73514,-3.43746 7.73507,-8.429 4.85293,-4.03732 19.7528,-16.64631 33.11082,-28.01997 l 24.28731,-20.67939 23.68349,0.78339 23.68347,0.7834 14.26194,8.01851 c 7.84406,4.41018 14.52866,8.7136 14.85465,9.56313 0.68072,1.77392 -4.9523,49.68813 -6.26758,53.31184 -0.77376,2.13177 -1.55957,2.38715 -7.03086,2.28504 -3.38785,-0.0633 -33.40052,-3.80802 -66.69482,-8.32175 z M 81.333332,345.97433 C 68.866665,340.9551 58.666665,336.41755 58.666665,335.8909 c 0,-0.53842 10.955479,-0.95756 25.029137,-0.95756 29.099228,0 28.002238,-0.43291 26.094118,10.29758 -1.59727,8.9824 -1.99696,9.97474 -3.99514,9.91919 -0.98713,-0.0274 -11.994782,-4.15655 -24.461448,-9.17578 z M 347.30552,298.21518 c -31.55373,-13.236 -32.92622,-13.91593 -32.44046,-16.07127 0.63094,-2.79949 37.42892,-43.21057 39.34718,-43.21057 1.3756,0 2.51897,1.93309 4.25859,7.2 1.30796,3.96 7.10709,19.60417 12.88697,34.76482 5.77987,15.16066 10.50886,28.00066 10.50886,28.53333 0,2.515 -8.07065,-0.10421 -34.56114,-11.21631 z m 37.49447,-33.97583 c -2.45402,-0.99095 -2.92101,-1.80445 -2.85795,-4.97859 0.0415,-2.08675 1.61391,-7.39409 3.49434,-11.79409 2.94498,-6.89091 3.8218,-8.04679 6.32463,-8.33751 1.59811,-0.18564 2.90565,-0.47055 2.90565,-0.63314 0,-0.1626 5.25725,-13.65336 11.68277,-29.97948 6.42553,-16.32613 11.4372,-30.08122 11.13705,-30.56687 -0.30015,-0.48564 -4.2374,-0.94574 -8.74944,-1.02241 -15.89886,-0.2702 -24.15776,-1.32471 -24.50018,-3.12822 -0.17415,-0.91719 1.09943,-4.98702 2.83016,-9.04405 3.70846,-8.69303 3.82606,-8.32794 -6.06237,-18.82067 C 365.23165,129.19741 339.57051,110.61777 315.65208,98.6166 287.4033,84.442659 258.99279,76.379069 233.6,75.328235 l -15.46667,-0.64006 -3.03288,7.388167 C 209.89299,94.761896 212.51263,96.047997 185.46137,67.525136 161.25526,42.002195 152.53333,32.39488 152.53333,31.254492 c 0,-0.338668 3,-0.314648 6.66667,0.05338 3.66666,0.368026 44.1961,3.560199 90.06541,7.093718 45.86931,3.533518 84.8401,6.712849 86.60175,7.065179 2.5122,0.502442 16.44473,14.64058 64.60125,65.554671 33.76903,35.70274 61.39825,65.72023 61.39825,66.70552 0,1.63854 -1.66146,1.72949 -19.46667,1.06575 l -19.46667,-0.72569 -12.14871,31.47509 -12.14872,31.47509 2.25026,1.8914 2.25026,1.89141 -3.99276,10.13333 c -3.93647,9.99045 -4.04506,10.13585 -7.70155,10.31192 -2.03983,0.0982 -5.02877,-0.35443 -6.64211,-1.00591 z m -166.24306,-3.29317 c -15.8705,-3.40935 -19.09027,-4.79091 -19.09027,-8.19133 0,-2.91619 17.09537,-46.09698 19.07055,-48.16982 1.60688,-1.68634 2.67444,0.30803 15.06279,28.13935 7.33333,16.47488 13.49333,30.37161 13.68888,30.88164 0.73163,1.90814 -13.67744,0.57423 -28.73195,-2.65984 z M 35.199999,237.83902 c 0,-1.9588 14.887636,-42.72682 17.226365,-47.17235 C 52.966479,189.64 53.797293,188.8 54.272616,188.8 c 1.415915,0 18.256236,36.10387 17.617149,37.7693 -0.323426,0.84283 -1.390933,1.85409 -2.37224,2.24723 C 62.585788,231.59358 37.918993,240 36.702055,240 c -0.82613,0 -1.502056,-0.97243 -1.502056,-2.16098 z M 293.89014,225.14066 c -0.37104,-1.16907 2.3647,-12.40983 6.32813,-26.00132 3.83994,-13.16807 6.98172,-24.90259 6.98172,-26.0767 0,-2.57972 2.90492,-5.27706 4.19737,-3.89743 0.49883,0.53247 9.59813,13.15938 20.22067,28.0598 15.11895,21.20761 19.05383,27.40478 18.11723,28.53333 -0.94747,1.14162 -6.81528,1.44166 -28.194,1.44166 -25.73739,0 -27.02802,-0.0961 -27.65112,-2.05934 z m 39.86311,-37.67399 c -25.41202,-36.50932 -24.7569,-35.69765 -30.09298,-37.28477 -2.45315,-0.72964 -7.79821,-3.37906 -11.8779,-5.88759 l -7.41761,-4.56097 h -19.50449 c -18.50707,0 -19.85803,-0.14154 -26.41786,-2.76761 l -6.91337,-2.76762 -15.56111,3.30095 C 199.45517,141.00188 195.2,141.4581 195.2,139.72572 c 0,-1.72101 28.60171,-58.410603 29.86345,-59.190401 0.62898,-0.388731 5.56701,-0.16258 10.97341,0.502557 29.99345,3.690028 53.61759,11.152208 80.7867,25.518184 22.32696,11.80563 37.40987,22.57065 53.0431,37.85805 9.68181,9.46764 12,12.31605 12,14.74466 0,1.65555 -2.55578,8.16211 -5.6795,14.459 -3.12371,6.2969 -8.75163,18.2889 -12.50646,26.6489 -4.88702,10.88076 -7.34007,15.2 -8.63262,15.2 -1.15561,0 -8.82193,-10.08026 -21.29483,-28 z"
       id="path855"
       inkscape:connector-curvature="0" />
  </g>
</svg>
